<svg width="197" height="219" viewBox="0 0 197 219" fill="none" xmlns="http://www.w3.org/2000/svg">
<path d="M27.3028 187.305C23.9539 187.305 22.2602 185.689 22.2602 182.417V170.022H27.3028V167.289H22.2602V159.629H19.2962V182.917C19.2962 187.459 21.9523 189.731 27.3028 189.731V187.305ZM52.4537 178.298C52.4537 175.219 51.3759 172.563 49.2588 170.33C47.1417 168.059 44.5242 166.904 41.4832 166.789C38.3268 166.673 35.5938 167.79 33.3227 170.099C31.0516 172.37 29.8968 175.142 29.8968 178.337C29.8968 181.416 30.9362 184.072 33.0533 186.305C35.1704 188.537 37.7879 189.692 40.8288 189.769C43.9853 189.885 46.7183 188.768 48.9893 186.497C51.2989 184.188 52.4537 181.455 52.4537 178.298ZM35.1319 184.188C33.5537 182.455 32.8223 180.415 32.8608 178.106C32.8993 175.758 33.7076 173.794 35.3628 172.139C37.018 170.484 38.9812 169.637 41.3293 169.676C43.5618 169.676 45.448 170.484 47.0262 172.139C48.6044 173.794 49.4513 175.758 49.5283 178.067C49.5667 180.492 48.7584 182.571 47.0262 184.38C45.3325 186.189 43.2924 186.998 40.8673 186.882C38.5963 186.805 36.7101 185.92 35.1319 184.188ZM63.9279 178.375L72.2809 167.328H68.6241L58.4619 180.492V159.591H55.421V189.269H58.5774V185.073L62.0803 180.646L69.2015 189.269H73.0123L63.9279 178.375ZM97.6754 178.298C97.6754 175.219 96.5976 172.563 94.4805 170.33C92.3634 168.059 89.7459 166.904 86.7049 166.789C83.5485 166.673 80.8155 167.79 78.5444 170.099C76.2733 172.37 75.1185 175.142 75.1185 178.337C75.1185 181.416 76.1579 184.072 78.275 186.305C80.3921 188.537 83.0096 189.692 86.0505 189.769C89.207 189.885 91.94 188.768 94.211 186.497C96.5206 184.188 97.6754 181.455 97.6754 178.298ZM80.3536 184.188C78.7754 182.455 78.044 180.415 78.0825 178.106C78.121 175.758 78.9293 173.794 80.5845 172.139C82.2397 170.484 84.2029 169.637 86.551 169.676C88.7835 169.676 90.6697 170.484 92.2479 172.139C93.8261 173.794 94.673 175.758 94.75 178.067C94.7884 180.492 93.9801 182.571 92.2479 184.38C90.5542 186.189 88.5141 186.998 86.089 186.882C83.818 186.805 81.9318 185.92 80.3536 184.188ZM103.568 159.591H100.643V189.269H103.568V159.591ZM129.44 178.298C129.44 175.219 128.362 172.563 126.245 170.33C124.128 168.059 121.51 166.904 118.469 166.789C115.313 166.673 112.58 167.79 110.309 170.099C108.038 172.37 106.883 175.142 106.883 178.337C106.883 181.416 107.922 184.072 110.039 186.305C112.156 188.537 114.774 189.692 117.815 189.769C120.971 189.885 123.704 188.768 125.975 186.497C128.285 184.188 129.44 181.455 129.44 178.298ZM112.118 184.188C110.54 182.455 109.808 180.415 109.847 178.106C109.885 175.758 110.694 173.794 112.349 172.139C114.004 170.484 115.967 169.637 118.315 169.676C120.548 169.676 122.434 170.484 124.012 172.139C125.59 173.794 126.437 175.758 126.514 178.067C126.553 180.492 125.744 182.571 124.012 184.38C122.318 186.189 120.278 186.998 117.853 186.882C115.582 186.805 113.696 185.92 112.118 184.188ZM154.925 178.414V178.26C155.041 175.219 154.001 172.563 151.846 170.33C149.69 168.059 147.073 166.904 143.993 166.789C140.798 166.673 138.065 167.751 135.794 170.061C133.523 172.332 132.368 175.103 132.368 178.298C132.368 181.378 133.446 184.034 135.563 186.266C137.68 188.499 140.259 189.654 143.3 189.769C146.765 189.885 149.69 188.576 152.077 185.843V189.269H154.925V178.414ZM137.834 172.101C139.49 170.446 141.453 169.637 143.801 169.637C146.033 169.637 147.958 170.446 149.536 172.101C151.114 173.756 151.961 175.719 152 178.029C152.038 180.454 151.23 182.571 149.498 184.38C147.804 186.151 145.764 186.998 143.339 186.882C141.106 186.767 139.182 185.881 137.603 184.149C136.025 182.417 135.294 180.377 135.332 178.067C135.371 175.719 136.179 173.756 137.834 172.101ZM166.513 178.375L174.866 167.328H171.209L161.047 180.492V159.591H158.006V189.269H161.163V185.073L164.665 180.646L171.787 189.269H175.597L166.513 178.375Z" fill="white"/>
<path d="M30.3148 211.138C30.138 210.797 29.8924 210.542 29.5781 210.372C29.2638 210.195 28.9003 210.106 28.4878 210.106C28.0359 210.106 27.6332 210.208 27.2796 210.411C26.9259 210.614 26.6476 210.902 26.4446 211.275C26.2482 211.649 26.1499 212.081 26.1499 212.572C26.1499 213.063 26.2482 213.498 26.4446 213.878C26.6476 214.252 26.9259 214.54 27.2796 214.743C27.6332 214.946 28.0359 215.047 28.4878 215.047C29.0968 215.047 29.5912 214.877 29.971 214.536C30.3508 214.196 30.5833 213.734 30.6684 213.151H28.1047V212.258H31.8668V213.132C31.7948 213.662 31.6049 214.15 31.2971 214.595C30.9958 215.041 30.5997 215.398 30.1085 215.666C29.6239 215.928 29.0837 216.059 28.4878 216.059C27.846 216.059 27.2599 215.912 26.7295 215.617C26.199 215.316 25.7767 214.9 25.4623 214.369C25.1546 213.839 25.0007 213.24 25.0007 212.572C25.0007 211.904 25.1546 211.305 25.4623 210.774C25.7767 210.244 26.199 209.831 26.7295 209.537C27.2665 209.235 27.8526 209.085 28.4878 209.085C29.2146 209.085 29.8597 209.265 30.4229 209.625C30.9926 209.979 31.4051 210.483 31.6605 211.138H30.3148ZM37.9318 213.161C37.9318 213.364 37.9187 213.548 37.8925 213.711H33.7571C33.7898 214.143 33.9503 214.491 34.2384 214.753C34.5265 215.014 34.8801 215.145 35.2993 215.145C35.9017 215.145 36.3274 214.893 36.5762 214.389H37.7844C37.6207 214.887 37.3228 215.296 36.8905 215.617C36.4649 215.931 35.9345 216.088 35.2993 216.088C34.7819 216.088 34.317 215.974 33.9044 215.745C33.4984 215.509 33.1775 215.181 32.9418 214.762C32.7126 214.337 32.598 213.846 32.598 213.289C32.598 212.732 32.7093 212.244 32.932 211.825C33.1612 211.4 33.4788 211.072 33.8848 210.843C34.2973 210.614 34.7688 210.499 35.2993 210.499C35.81 210.499 36.2652 210.611 36.6646 210.833C37.0641 211.056 37.3751 211.37 37.5978 211.776C37.8204 212.176 37.9318 212.637 37.9318 213.161ZM36.7629 212.808C36.7563 212.395 36.609 212.064 36.3208 211.815C36.0327 211.567 35.6758 211.442 35.2501 211.442C34.8638 211.442 34.5331 211.567 34.258 211.815C33.983 212.058 33.8193 212.388 33.7669 212.808H36.7629ZM40.3402 211.501V214.497C40.3402 214.7 40.386 214.847 40.4777 214.939C40.5759 215.024 40.7397 215.067 40.9689 215.067H41.6564V216H40.7724C40.2682 216 39.8818 215.882 39.6133 215.646C39.3448 215.411 39.2106 215.028 39.2106 214.497V211.501H38.5721V210.588H39.2106V209.242H40.3402V210.588H41.6564V211.501H40.3402ZM49.3559 214.605H46.4975L46.0063 216H44.8374L47.2833 209.163H48.5799L51.0258 216H49.847L49.3559 214.605ZM49.0416 213.692L47.9316 210.519L46.8118 213.692H49.0416ZM54.82 210.499C55.2456 210.499 55.6255 210.588 55.9594 210.764C56.3 210.941 56.5652 211.203 56.7551 211.55C56.945 211.897 57.0399 212.316 57.0399 212.808V216H55.93V212.975C55.93 212.49 55.8088 212.12 55.5665 211.865C55.3242 211.603 54.9935 211.472 54.5744 211.472C54.1553 211.472 53.8213 211.603 53.5725 211.865C53.3302 212.12 53.2091 212.49 53.2091 212.975V216H52.0893V210.588H53.2091V211.206C53.3924 210.984 53.6249 210.81 53.9065 210.686C54.1946 210.561 54.4991 210.499 54.82 210.499ZM63.3404 210.588L60.0203 218.544H58.8612L59.9614 215.912L57.8298 210.588H59.0773L60.5999 214.713L62.1813 210.588H63.3404ZM65.4919 211.501V214.497C65.4919 214.7 65.5378 214.847 65.6294 214.939C65.7277 215.024 65.8914 215.067 66.1206 215.067H66.8082V216H65.9241C65.4199 216 65.0335 215.882 64.765 215.646C64.4965 215.411 64.3623 215.028 64.3623 214.497V211.501H63.7238V210.588H64.3623V209.242H65.4919V210.588H66.8082V211.501H65.4919ZM70.6398 210.499C71.0523 210.499 71.419 210.588 71.7399 210.764C72.0673 210.941 72.3227 211.203 72.5061 211.55C72.696 211.897 72.791 212.316 72.791 212.808V216H71.681V212.975C71.681 212.49 71.5598 212.12 71.3175 211.865C71.0752 211.603 70.7445 211.472 70.3254 211.472C69.9063 211.472 69.5724 211.603 69.3235 211.865C69.0812 212.12 68.9601 212.49 68.9601 212.975V216H67.8403V208.731H68.9601V211.216C69.15 210.987 69.389 210.81 69.6771 210.686C69.9718 210.561 70.2927 210.499 70.6398 210.499ZM74.789 209.871C74.586 209.871 74.4158 209.802 74.2783 209.664C74.1407 209.527 74.072 209.357 74.072 209.154C74.072 208.951 74.1407 208.78 74.2783 208.643C74.4158 208.505 74.586 208.436 74.789 208.436C74.9855 208.436 75.1525 208.505 75.29 208.643C75.4275 208.78 75.4963 208.951 75.4963 209.154C75.4963 209.357 75.4275 209.527 75.29 209.664C75.1525 209.802 74.9855 209.871 74.789 209.871ZM75.3391 210.588V216H74.2193V210.588H75.3391ZM79.5401 210.499C79.9657 210.499 80.3455 210.588 80.6795 210.764C81.02 210.941 81.2852 211.203 81.4751 211.55C81.6651 211.897 81.76 212.316 81.76 212.808V216H80.65V212.975C80.65 212.49 80.5289 212.12 80.2866 211.865C80.0443 211.603 79.7136 211.472 79.2945 211.472C78.8754 211.472 78.5414 211.603 78.2926 211.865C78.0503 212.12 77.9291 212.49 77.9291 212.975V216H76.8093V210.588H77.9291V211.206C78.1125 210.984 78.3449 210.81 78.6265 210.686C78.9147 210.561 79.2192 210.499 79.5401 210.499ZM85.369 210.499C85.7882 210.499 86.1581 210.584 86.479 210.755C86.8064 210.918 87.0618 211.125 87.2452 211.373V210.588H88.3748V216.088C88.3748 216.586 88.27 217.028 88.0605 217.414C87.8509 217.807 87.5464 218.115 87.147 218.338C86.7541 218.56 86.2826 218.672 85.7325 218.672C84.9991 218.672 84.39 218.498 83.9054 218.151C83.4209 217.811 83.1458 217.346 83.0803 216.756H84.1903C84.2754 217.038 84.4555 217.264 84.7306 217.434C85.0122 217.611 85.3461 217.699 85.7325 217.699C86.1843 217.699 86.5478 217.562 86.8228 217.287C87.1044 217.012 87.2452 216.612 87.2452 216.088V215.185C87.0553 215.44 86.7966 215.656 86.4692 215.833C86.1483 216.003 85.7816 216.088 85.369 216.088C84.8976 216.088 84.4653 215.971 84.0724 215.735C83.6861 215.492 83.3783 215.159 83.1491 214.733C82.9264 214.301 82.8151 213.813 82.8151 213.269C82.8151 212.726 82.9264 212.244 83.1491 211.825C83.3783 211.406 83.6861 211.082 84.0724 210.853C84.4653 210.617 84.8976 210.499 85.369 210.499ZM87.2452 213.289C87.2452 212.916 87.1666 212.591 87.0095 212.316C86.8588 212.041 86.6591 211.832 86.4103 211.688C86.1614 211.544 85.8929 211.472 85.6048 211.472C85.3167 211.472 85.0482 211.544 84.7993 211.688C84.5505 211.825 84.3475 212.032 84.1903 212.307C84.0397 212.575 83.9644 212.896 83.9644 213.269C83.9644 213.643 84.0397 213.97 84.1903 214.252C84.3475 214.533 84.5505 214.749 84.7993 214.9C85.0547 215.044 85.3232 215.116 85.6048 215.116C85.8929 215.116 86.1614 215.044 86.4103 214.9C86.6591 214.756 86.8588 214.546 87.0095 214.271C87.1666 213.99 87.2452 213.662 87.2452 213.289ZM101.287 209.173L99.2634 216H97.9962L96.5621 210.833L95.0396 216L93.7823 216.01L91.8472 209.173H93.0357L94.4502 214.733L95.9826 209.173H97.2399L98.6642 214.703L100.089 209.173H101.287ZM105.01 210.499C105.423 210.499 105.789 210.588 106.11 210.764C106.438 210.941 106.693 211.203 106.876 211.55C107.066 211.897 107.161 212.316 107.161 212.808V216H106.051V212.975C106.051 212.49 105.93 212.12 105.688 211.865C105.445 211.603 105.115 211.472 104.696 211.472C104.277 211.472 103.943 211.603 103.694 211.865C103.451 212.12 103.33 212.49 103.33 212.975V216H102.21V208.731H103.33V211.216C103.52 210.987 103.759 210.81 104.047 210.686C104.342 210.561 104.663 210.499 105.01 210.499ZM108.216 213.269C108.216 212.726 108.328 212.244 108.55 211.825C108.779 211.406 109.087 211.082 109.474 210.853C109.866 210.617 110.299 210.499 110.77 210.499C111.196 210.499 111.566 210.584 111.88 210.755C112.201 210.918 112.456 211.125 112.646 211.373V210.588H113.776V216H112.646V215.195C112.456 215.45 112.198 215.663 111.87 215.833C111.543 216.003 111.17 216.088 110.751 216.088C110.286 216.088 109.86 215.971 109.474 215.735C109.087 215.492 108.779 215.159 108.55 214.733C108.328 214.301 108.216 213.813 108.216 213.269ZM112.646 213.289C112.646 212.916 112.568 212.591 112.411 212.316C112.26 212.041 112.06 211.832 111.811 211.688C111.563 211.544 111.294 211.472 111.006 211.472C110.718 211.472 110.449 211.544 110.2 211.688C109.952 211.825 109.749 212.032 109.591 212.307C109.441 212.575 109.366 212.896 109.366 213.269C109.366 213.643 109.441 213.97 109.591 214.252C109.749 214.533 109.952 214.749 110.2 214.9C110.456 215.044 110.724 215.116 111.006 215.116C111.294 215.116 111.563 215.044 111.811 214.9C112.06 214.756 112.26 214.546 112.411 214.271C112.568 213.99 112.646 213.662 112.646 213.289ZM116.553 211.501V214.497C116.553 214.7 116.599 214.847 116.691 214.939C116.789 215.024 116.953 215.067 117.182 215.067H117.869V216H116.985C116.481 216 116.095 215.882 115.826 215.646C115.558 215.411 115.424 215.028 115.424 214.497V211.501H114.785V210.588H115.424V209.242H116.553V210.588H117.869V211.501H116.553ZM126.512 209.173L124.253 213.525V216H123.133V213.525L120.864 209.173H122.111L123.693 212.523L125.274 209.173H126.512ZM129.748 216.088C129.237 216.088 128.776 215.974 128.363 215.745C127.951 215.509 127.626 215.181 127.391 214.762C127.155 214.337 127.037 213.846 127.037 213.289C127.037 212.739 127.158 212.251 127.401 211.825C127.643 211.4 127.974 211.072 128.393 210.843C128.812 210.614 129.28 210.499 129.797 210.499C130.315 210.499 130.783 210.614 131.202 210.843C131.621 211.072 131.952 211.4 132.194 211.825C132.436 212.251 132.558 212.739 132.558 213.289C132.558 213.839 132.433 214.327 132.184 214.753C131.935 215.178 131.595 215.509 131.163 215.745C130.737 215.974 130.266 216.088 129.748 216.088ZM129.748 215.116C130.036 215.116 130.305 215.047 130.554 214.91C130.809 214.772 131.015 214.566 131.173 214.291C131.33 214.016 131.408 213.682 131.408 213.289C131.408 212.896 131.333 212.565 131.182 212.297C131.032 212.022 130.832 211.815 130.583 211.678C130.334 211.54 130.066 211.472 129.778 211.472C129.49 211.472 129.221 211.54 128.972 211.678C128.73 211.815 128.537 212.022 128.393 212.297C128.249 212.565 128.177 212.896 128.177 213.289C128.177 213.872 128.324 214.324 128.619 214.644C128.92 214.959 129.296 215.116 129.748 215.116ZM138.566 210.588V216H137.446V215.362C137.269 215.584 137.037 215.761 136.749 215.892C136.467 216.016 136.166 216.079 135.845 216.079C135.42 216.079 135.036 215.99 134.696 215.813C134.362 215.637 134.097 215.375 133.9 215.028C133.71 214.68 133.615 214.261 133.615 213.77V210.588H134.725V213.603C134.725 214.088 134.847 214.461 135.089 214.723C135.331 214.978 135.662 215.106 136.081 215.106C136.5 215.106 136.831 214.978 137.073 214.723C137.322 214.461 137.446 214.088 137.446 213.603V210.588H138.566ZM151.485 209.173L149.461 216H148.194L146.76 210.833L145.238 216L143.98 216.01L142.045 209.173H143.234L144.648 214.733L146.181 209.173H147.438L148.862 214.703L150.286 209.173H151.485ZM152.035 213.269C152.035 212.726 152.146 212.244 152.369 211.825C152.598 211.406 152.906 211.082 153.292 210.853C153.685 210.617 154.118 210.499 154.589 210.499C155.015 210.499 155.385 210.584 155.699 210.755C156.02 210.918 156.275 211.125 156.465 211.373V210.588H157.595V216H156.465V215.195C156.275 215.45 156.017 215.663 155.689 215.833C155.362 216.003 154.989 216.088 154.569 216.088C154.104 216.088 153.679 215.971 153.292 215.735C152.906 215.492 152.598 215.159 152.369 214.733C152.146 214.301 152.035 213.813 152.035 213.269ZM156.465 213.289C156.465 212.916 156.387 212.591 156.229 212.316C156.079 212.041 155.879 211.832 155.63 211.688C155.381 211.544 155.113 211.472 154.825 211.472C154.537 211.472 154.268 211.544 154.019 211.688C153.77 211.825 153.567 212.032 153.41 212.307C153.26 212.575 153.184 212.896 153.184 213.269C153.184 213.643 153.26 213.97 153.41 214.252C153.567 214.533 153.77 214.749 154.019 214.9C154.275 215.044 154.543 215.116 154.825 215.116C155.113 215.116 155.381 215.044 155.63 214.9C155.879 214.756 156.079 214.546 156.229 214.271C156.387 213.99 156.465 213.662 156.465 213.289ZM161.796 210.499C162.222 210.499 162.602 210.588 162.936 210.764C163.276 210.941 163.542 211.203 163.731 211.55C163.921 211.897 164.016 212.316 164.016 212.808V216H162.906V212.975C162.906 212.49 162.785 212.12 162.543 211.865C162.301 211.603 161.97 211.472 161.551 211.472C161.132 211.472 160.798 211.603 160.549 211.865C160.307 212.12 160.185 212.49 160.185 212.975V216H159.066V210.588H160.185V211.206C160.369 210.984 160.601 210.81 160.883 210.686C161.171 210.561 161.476 210.499 161.796 210.499ZM166.751 211.501V214.497C166.751 214.7 166.797 214.847 166.889 214.939C166.987 215.024 167.151 215.067 167.38 215.067H168.067V216H167.183C166.679 216 166.293 215.882 166.024 215.646C165.756 215.411 165.622 215.028 165.622 214.497V211.501H164.983V210.588H165.622V209.242H166.751V210.588H168.067V211.501H166.751Z" fill="white"/>
<path d="M24.6372 216.982H168.362V217.473H24.6372V216.982Z" fill="white"/>
<circle cx="115.308" cy="136.89" r="9.61539" fill="white"/>
<path fill-rule="evenodd" clip-rule="evenodd" d="M98 121.231C125.614 121.231 148 100.444 148 74.8022C148 49.1604 125.614 28.3737 98 28.3737C70.3858 28.3737 48 49.1604 48 74.8022C48 100.444 70.3858 121.231 98 121.231ZM98 105.297C116.207 105.297 130.967 91.6438 130.967 74.8022C130.967 57.9605 116.207 44.3077 98 44.3077C79.7928 44.3077 65.033 57.9605 65.033 74.8022C65.033 91.6438 79.7928 105.297 98 105.297Z" fill="white"/>
<path fill-rule="evenodd" clip-rule="evenodd" d="M70.8791 0H50V46.4456C54.8601 38.5745 62.1316 32.1514 70.8791 28.0451V0Z" fill="white"/>
<circle cx="80.1427" cy="136.89" r="9.61539" fill="white"/>
<mask id="mask0_28_57" style="mask-type:alpha" maskUnits="userSpaceOnUse" x="48" y="28" width="100" height="94">
<path fill-rule="evenodd" clip-rule="evenodd" d="M98 121.231C125.614 121.231 148 100.444 148 74.8022C148 49.1604 125.614 28.3737 98 28.3737C70.3858 28.3737 48 49.1604 48 74.8022C48 100.444 70.3858 121.231 98 121.231ZM98 105.297C116.207 105.297 130.967 91.6438 130.967 74.8022C130.967 57.9605 116.207 44.3077 98 44.3077C79.7928 44.3077 65.033 57.9605 65.033 74.8022C65.033 91.6438 79.7928 105.297 98 105.297Z" fill="#947878"/>
</mask>
<g mask="url(#mask0_28_57)">
<circle cx="97.7253" cy="130.846" r="60.7143" fill="#D8E8F7"/>
</g>
</svg>
